<svg width="310" height="309" viewBox="0 0 310 309" fill="none" xmlns="http://www.w3.org/2000/svg">
<path d="M160.426 285.753C162.52 285.586 165.388 285.577 167.609 285.364C185.543 283.312 199.044 278.491 207.094 274.892L209.468 273.899C212.851 272.111 212.851 272.111 214.543 271.217C218.262 269.164 218.262 269.164 220.162 268.05C230.245 261.695 236.38 256.749 245 248.304C247.543 245.366 251.002 241.375 253.545 238.437C238.178 254.946 166.412 283.616 114.39 276.229C107.13 275.195 104.623 274.205 99.3454 271.883C103.976 274.001 110.121 276.738 114.833 278.681C124.192 281.576 129.195 283.126 139.333 284.582C139.206 284.627 139.206 284.627 139.333 284.582L140.709 284.816C141.31 284.891 142.039 284.921 142.64 284.997C149.462 285.607 151.821 285.78 155.718 285.838C157.002 285.815 158.413 285.746 160.426 285.753Z" fill="url(#paint0_linear_1_10343)"/>
<path d="M249.052 79.124C248.971 78.8487 248.533 78.3799 248.451 78.1046L243.196 72.4787C233.861 64.1728 233.423 63.704 227.48 59.7809C217.375 52.9028 216.744 52.7909 210.06 49.3881L205.238 47.2285C215.18 53.5562 167.214 78.0242 127.444 86.8693C112.304 90.1786 84.7965 95.0731 73.5989 85.5241C61.0398 70.3884 104.728 46.5949 110.565 48.1525C110.921 48.3461 111.277 48.5397 111.359 48.815C111.33 49.7224 111.412 49.9976 109.27 51.8337C105.81 55.2608 110.69 55.6056 112.774 55.5844C126.099 55.2121 155.787 41.579 151.105 37.8798C150.393 37.4926 149.132 37.2688 147.404 37.4836C145.046 37.5865 142.14 37.8527 140.138 38.1492C134.406 38.9569 134.406 38.9569 131.307 39.58C126.562 40.6932 126.562 40.6932 124.367 41.3466C120.171 42.2964 120.171 42.2964 118.333 43.1434C114.767 44.2052 114.767 44.2052 112.928 45.0521C109.637 46.0322 109.637 46.0322 108.072 46.7975C104.67 48.4097 104.67 48.4097 103.106 49.175C99.7035 50.7873 99.7035 50.7873 97.8652 51.6342C94.2702 53.6034 94.2702 53.6034 92.2393 54.8073C84.1975 59.8981 77.6091 64.8558 68.5468 73.5461C63.5753 78.9212 59.7299 83.0622 54.0411 91.0476C51.3748 95.1372 48.0202 100.93 45.7917 105.488C43.1782 110.76 36.7383 125.261 52.8734 133.34C62.161 137.466 73.7009 139.123 86.0108 139.353C153.129 139.143 251.203 88.3707 249.052 79.124Z" fill="url(#paint1_linear_1_10343)"/>
<path d="M183.378 116.97C188.824 114.826 203.931 109.931 192.614 117.805C181.208 125.451 183.672 131.055 198.791 123.525C213.774 116.312 258.471 90.0375 248.427 78.476L243.336 72.8538C235.624 65.8964 234.001 64.4317 230.3 61.681C210.831 78.8128 106.147 127.125 57.1965 105.897C53.3104 104.008 50.7857 101.583 49.4851 98.9393C48.0693 101.338 46.6535 103.736 45.602 105.728C43.2658 111.118 36.6279 125.565 52.8946 133.625C62.1593 137.867 73.5205 139.443 86.1122 139.483C116.233 139.459 152.608 129.346 183.378 116.97Z" fill="url(#paint2_linear_1_10343)"/>
<path d="M110.195 48.9209C110.413 48.9891 110.706 49.2006 110.961 49.3405C110.954 50.3539 110.926 50.644 108.856 52.3847C105.508 55.9957 110.115 56.3052 112.269 56.2638C125.629 56.1518 155.384 42.4792 150.681 38.7334C150.056 38.2388 148.757 38.0104 146.749 38.1576C144.6 38.3798 141.733 38.6159 139.622 38.9098C133.789 39.7095 133.789 39.7095 130.79 40.3824C126.148 41.3763 126.148 41.3763 123.759 42.0013C119.802 43.0906 119.802 43.0906 117.881 43.7428C114.25 44.9345 114.25 44.9345 112.508 45.5832C109.204 46.8771 109.204 46.8771 107.571 47.5599C104.233 48.9631 104.233 48.9631 102.567 49.7551C99.273 51.4108 99.2022 51.4483 97.5032 52.3496C93.8601 54.3738 93.7893 54.4114 91.9159 55.4969C87.0794 58.5212 82.6728 61.5011 78.074 65.3171C78.4381 65.491 78.873 65.6274 79.275 65.873C89.6303 55.9751 106.613 47.9765 110.195 48.9209Z" fill="url(#paint3_linear_1_10343)"/>
<path d="M277.428 184.874C278.105 180.929 279.019 175.973 279.156 172.231C280.076 159.891 280.144 159.25 279.609 152.069C278.237 139.359 278.035 138.819 276.321 131.773L276.389 131.132C275.633 150.484 115.091 219.6 51.1647 190.976C45.9751 188.616 34.1463 184.132 32.4359 172.163C33.1737 177.423 34.0454 183.862 34.952 188.751C38.3139 201.023 38.7176 202.102 42.0153 210.092C44.5734 215.285 48.1078 222.264 50.9357 227.354C54.0002 231.434 57.9071 236.12 71.4553 240.267C81.5665 242.627 92.7236 243.672 104.117 243.706C179.222 243.841 274.52 197.652 277.428 184.874Z" fill="url(#paint4_linear_1_10343)"/>
<path d="M197.448 226.537C215.368 221.34 195.391 233.883 180.962 237.747C173.78 239.785 167.449 245.248 181.305 242.488C204.283 238.002 277.181 201.356 277.504 184.86C278.119 180.971 278.888 176.11 279.294 172.288C279.753 164.984 279.873 161.714 279.916 158.93C255.129 181.767 133.724 235.348 57.2431 216.092C49.6411 213.874 44.8921 211.218 41.531 208.585C41.6634 209.005 41.7958 209.425 42.1375 209.779C44.5524 215.251 48.3339 222.138 51.1012 227.268C54.1654 231.149 58.0452 236.158 71.5195 240.215C81.6883 242.545 92.6386 243.705 104.371 243.695C134.565 243.857 168.072 236.276 197.448 226.537Z" fill="url(#paint5_linear_1_10343)"/>
<path d="M208.845 273.067C210.575 272.307 210.575 272.307 213.98 270.546C215.831 269.531 215.831 269.531 219.519 267.328C230.73 260.356 236.686 255.248 244.282 247.702C247.006 244.798 250.389 240.862 252.966 237.864C253.543 237.155 254.389 235.829 253.868 234.955C250.049 227.939 195.364 252.134 188.719 268.137C186.472 273.672 193.356 274.847 202.661 270.472C208.949 266.989 216.093 265.091 217.565 266.034C217.859 266.223 219.946 267.893 206.58 274.147L208.845 273.067Z" fill="url(#paint6_linear_1_10343)"/>
<path d="M237.86 253.528C238.179 254.074 237.988 254.691 237.704 255.313C240.085 253.233 242.41 251.016 244.859 248.559C247.561 245.715 250.982 241.761 253.441 238.789C253.999 238.06 254.89 236.754 254.409 235.889C250.451 228.783 195.729 252.525 189.261 268.46C188.853 269.322 188.768 270.121 188.857 270.725C207.388 258.696 235.127 248.561 237.86 253.528Z" fill="url(#paint7_linear_1_10343)"/>
<path d="M156.209 284.453C126.792 282.137 133.267 263.063 147.733 247.245C186.533 205.216 277.093 169.789 277.361 184.744C282.835 160.319 277.955 136.216 276.196 131.369C274.394 126.733 261.973 129.159 252.288 131.588C178.214 150.946 45.7529 243.774 99.4528 271.146C113.961 278.454 130.996 284.628 152.252 284.532C153.557 284.576 154.988 284.536 156.209 284.453Z" fill="url(#paint8_linear_1_10343)"/>
<path d="M47.7256 221.057C35.1871 168.745 219.153 58.9269 247.589 77.9151C237.095 64.6803 212.722 49.4672 204.534 47.392C161.375 36.6778 28.8514 113.443 31.8621 170.807C32.9422 195.318 43.3271 217.204 50.606 227.569C49.4541 225.708 48.254 223.305 47.7256 221.057Z" fill="url(#paint9_linear_1_10343)"/>
<path d="M45.3385 105.317C45.1752 105.565 45.0855 105.754 44.9799 106.075C45.0855 105.754 45.1752 105.565 45.3385 105.317ZM146.81 37.8596C144.663 38.0205 141.827 38.3709 139.68 38.5318C136.492 39.0427 136.214 39.1447 130.904 40.1516C128.446 40.6769 128.241 40.7207 123.85 41.8294C121.859 42.3399 121.786 42.3982 117.919 43.5651C116.117 44.1631 116.044 44.2214 112.629 45.5047C110.958 46.1172 110.958 46.1172 107.6 47.4734C105.914 48.2171 105.914 48.2171 102.671 49.7189C100.911 50.5209 100.911 50.5209 97.5629 52.3435C95.7128 53.3349 95.7128 53.3349 91.923 55.5073C80.4735 62.6804 74.3562 68.1178 68.1011 74.1383C61.3402 81.0332 57.6809 85.9454 53.5157 91.7322C50.8456 95.624 47.7207 101.061 45.3385 105.317C64.5271 71.2827 126.216 40.4297 146.81 37.8596Z" fill="url(#paint10_linear_1_10343)"/>
<path d="M121.011 279.231C75.1194 255.8 181.343 172.664 259.473 157.062C268.266 155.355 274.973 155.659 279.567 156.655C279.092 144.158 277.032 134.597 275.976 131.719C274.206 127.019 261.691 129.42 252.238 131.948C222.85 139.585 184.669 158.601 152.219 180.618C140.68 188.381 125.313 194.777 146.462 177.907C159.585 167.208 146.304 166.757 122.302 186.01C81.8514 218.743 83.4629 246.14 86.6582 257.707C87.0544 259.794 87.8994 261.774 89.1933 263.648C89.1933 263.648 89.1933 263.648 89.3253 263.806C91.2529 266.762 94.3687 269.53 98.8576 271.688C108.231 276.48 118.688 280.635 130.623 283.018C127.19 282.126 124.101 280.678 121.011 279.231Z" fill="url(#paint11_linear_1_10343)"/>
<path d="M162.031 166.754C164.661 165.896 171.776 162.36 175.183 158.896C178.739 155.342 177.453 153.355 172.655 154.487C166.706 155.898 160.683 159.904 158.098 162.878C155.588 165.806 156.679 167.297 159.101 167.279C159.923 167.298 160.925 167.108 162.031 166.754Z" fill="url(#paint12_linear_1_10343)"/>
<path d="M38.3144 198.981C35.0025 136.72 174.776 53.9631 227.194 59.9152C218.177 53.2862 208.826 48.3769 204.326 47.2291C199.826 46.0813 194.179 45.895 187.645 46.6606C184.112 46.9219 181.962 45.425 186.399 44.7365C191.351 43.7664 196.465 43.7096 203.83 44.2267C205.411 44.4312 206.414 43.081 205.574 41.536C204.057 39.3591 198.075 37.0838 182.053 40.431C86.9688 60.4757 50.9553 119.848 37.8018 145.679C36.5005 145.99 39.6101 141.016 40.2795 137.577C41.5457 132.408 34.9405 131.075 31.7639 153.256C29.3385 170.549 34.3942 191.77 38.449 202.916C38.2776 201.74 38.3592 200.292 38.3144 198.981Z" fill="url(#paint13_linear_1_10343)"/>
<g style="mix-blend-mode:color">
<path d="M160.426 285.753C162.52 285.586 165.388 285.577 167.609 285.364C185.543 283.312 199.044 278.491 207.094 274.892L209.468 273.899C212.851 272.111 212.851 272.111 214.543 271.217C218.262 269.164 218.262 269.164 220.162 268.05C230.245 261.695 236.38 256.749 245 248.304C247.543 245.366 251.002 241.375 253.545 238.437C238.178 254.946 166.412 283.616 114.39 276.229C107.13 275.195 104.623 274.205 99.3453 271.883C103.976 274.001 110.121 276.738 114.833 278.681C124.192 281.576 129.195 283.126 139.333 284.582C139.206 284.627 139.206 284.627 139.333 284.582L140.709 284.816C141.31 284.891 142.039 284.921 142.64 284.997C149.462 285.607 151.821 285.78 155.718 285.838C157.002 285.815 158.413 285.746 160.426 285.753Z" fill="#F55D55"/>
<path d="M249.052 79.124C248.971 78.8487 248.533 78.3799 248.451 78.1046L243.196 72.4787C233.861 64.1728 233.423 63.704 227.48 59.7809C217.375 52.9028 216.744 52.7909 210.06 49.3881L205.238 47.2285C215.18 53.5562 167.214 78.0242 127.444 86.8693C112.304 90.1786 84.7965 95.0731 73.5989 85.5241C61.0398 70.3884 104.728 46.5949 110.565 48.1525C110.921 48.3461 111.277 48.5397 111.359 48.815C111.33 49.7224 111.412 49.9976 109.27 51.8337C105.81 55.2608 110.69 55.6056 112.774 55.5844C126.099 55.2121 155.787 41.579 151.105 37.8798C150.393 37.4926 149.132 37.2688 147.404 37.4836C145.046 37.5865 142.14 37.8527 140.138 38.1492C134.406 38.9569 134.406 38.9569 131.307 39.58C126.562 40.6932 126.562 40.6932 124.367 41.3466C120.171 42.2964 120.171 42.2964 118.333 43.1434C114.767 44.2052 114.767 44.2052 112.928 45.0521C109.637 46.0322 109.637 46.0322 108.072 46.7975C104.67 48.4097 104.67 48.4097 103.106 49.175C99.7035 50.7873 99.7035 50.7873 97.8652 51.6342C94.2702 53.6034 94.2702 53.6034 92.2393 54.8073C84.1975 59.8981 77.609 64.8558 68.5468 73.5461C63.5752 78.9212 59.7299 83.0622 54.0411 91.0476C51.3748 95.1372 48.0201 100.93 45.7917 105.488C43.1782 110.76 36.7382 125.261 52.8734 133.34C62.1609 137.466 73.7008 139.123 86.0108 139.353C153.129 139.143 251.203 88.3707 249.052 79.124Z" fill="#F55D55"/>
<path d="M183.378 116.97C188.824 114.826 203.931 109.931 192.614 117.805C181.208 125.451 183.672 131.055 198.791 123.525C213.774 116.312 258.471 90.0375 248.427 78.476L243.336 72.8538C235.624 65.8965 234.001 64.4317 230.3 61.681C210.831 78.8128 106.147 127.125 57.1965 105.897C53.3104 104.008 50.7857 101.583 49.4851 98.9393C48.0693 101.338 46.6535 103.736 45.602 105.728C43.2658 111.118 36.6279 125.565 52.8946 133.625C62.1593 137.867 73.5205 139.443 86.1122 139.483C116.233 139.459 152.608 129.346 183.378 116.97Z" fill="#F55D55"/>
<path d="M110.195 48.9209C110.413 48.9891 110.706 49.2006 110.961 49.3405C110.954 50.3539 110.926 50.644 108.855 52.3847C105.508 55.9957 110.115 56.3052 112.269 56.2638C125.629 56.1518 155.384 42.4792 150.681 38.7334C150.056 38.2388 148.757 38.0104 146.749 38.1576C144.6 38.3798 141.733 38.6159 139.622 38.9098C133.789 39.7095 133.789 39.7095 130.79 40.3824C126.148 41.3763 126.148 41.3763 123.759 42.0013C119.802 43.0906 119.802 43.0906 117.881 43.7428C114.25 44.9345 114.25 44.9345 112.508 45.5832C109.204 46.8771 109.204 46.8771 107.571 47.5599C104.233 48.9631 104.233 48.9631 102.567 49.7551C99.273 51.4108 99.2022 51.4483 97.5032 52.3496C93.8601 54.3738 93.7893 54.4114 91.9159 55.4969C87.0794 58.5212 82.6728 61.5011 78.074 65.3171C78.4381 65.491 78.873 65.6274 79.275 65.873C89.6303 55.9751 106.612 47.9765 110.195 48.9209Z" fill="#F55D55"/>
<path d="M277.428 184.874C278.105 180.929 279.019 175.973 279.156 172.231C280.076 159.891 280.144 159.25 279.609 152.069C278.237 139.359 278.035 138.819 276.321 131.773L276.389 131.132C275.633 150.484 115.091 219.6 51.1646 190.976C45.9751 188.616 34.1463 184.132 32.4359 172.163C33.1737 177.423 34.0454 183.862 34.952 188.751C38.3139 201.023 38.7176 202.102 42.0153 210.092C44.5734 215.285 48.1078 222.264 50.9357 227.355C54.0002 231.434 57.9071 236.12 71.4553 240.267C81.5665 242.627 92.7236 243.673 104.117 243.706C179.222 243.841 274.52 197.652 277.428 184.874Z" fill="#F55D55"/>
<path d="M197.448 226.537C215.368 221.34 195.391 233.883 180.962 237.747C173.78 239.785 167.449 245.248 181.305 242.488C204.283 238.002 277.181 201.356 277.504 184.86C278.119 180.971 278.888 176.11 279.294 172.288C279.753 164.984 279.873 161.714 279.916 158.93C255.129 181.767 133.724 235.348 57.2431 216.092C49.6411 213.874 44.8921 211.218 41.531 208.585C41.6634 209.005 41.7958 209.425 42.1375 209.779C44.5524 215.251 48.3339 222.138 51.1012 227.268C54.1654 231.149 58.0452 236.158 71.5195 240.215C81.6883 242.545 92.6386 243.705 104.371 243.695C134.565 243.857 168.072 236.276 197.448 226.537Z" fill="#F55D55"/>
<path d="M208.845 273.067C210.575 272.307 210.575 272.307 213.981 270.546C215.831 269.531 215.831 269.531 219.519 267.328C230.73 260.356 236.687 255.248 244.282 247.702C247.006 244.798 250.389 240.862 252.966 237.864C253.543 237.155 254.389 235.829 253.868 234.955C250.049 227.939 195.364 252.134 188.719 268.137C186.472 273.672 193.356 274.847 202.661 270.472C208.949 266.989 216.093 265.091 217.565 266.034C217.859 266.223 219.946 267.893 206.58 274.147L208.845 273.067Z" fill="#F55D55"/>
<path d="M237.86 253.528C238.179 254.074 237.988 254.691 237.704 255.313C240.085 253.233 242.41 251.016 244.859 248.559C247.561 245.715 250.982 241.761 253.441 238.789C253.999 238.06 254.89 236.754 254.409 235.889C250.451 228.783 195.729 252.525 189.261 268.46C188.853 269.322 188.768 270.121 188.857 270.725C207.388 258.696 235.127 248.561 237.86 253.528Z" fill="#F55D55"/>
<path d="M156.209 284.453C126.792 282.137 133.267 263.063 147.733 247.245C186.533 205.216 277.094 169.789 277.361 184.744C282.835 160.319 277.955 136.216 276.196 131.369C274.394 126.733 261.973 129.159 252.288 131.588C178.215 150.946 45.753 243.774 99.4528 271.146C113.961 278.454 130.996 284.628 152.252 284.532C153.557 284.576 154.988 284.536 156.209 284.453Z" fill="#F55D55"/>
<path d="M47.7256 221.057C35.1871 168.745 219.153 58.9269 247.589 77.9151C237.095 64.6803 212.722 49.4672 204.534 47.392C161.375 36.6778 28.8514 113.443 31.8621 170.807C32.9422 195.318 43.3271 217.204 50.606 227.569C49.4541 225.708 48.254 223.305 47.7256 221.057Z" fill="#F55D55"/>
<path d="M45.3385 105.317C45.1752 105.565 45.0855 105.754 44.9799 106.075C45.0855 105.754 45.1752 105.565 45.3385 105.317ZM146.81 37.8596C144.663 38.0205 141.827 38.3709 139.68 38.5318C136.492 39.0427 136.214 39.1447 130.904 40.1516C128.446 40.6769 128.241 40.7207 123.85 41.8294C121.859 42.3399 121.786 42.3982 117.919 43.5651C116.117 44.1631 116.044 44.2214 112.629 45.5047C110.958 46.1172 110.958 46.1172 107.6 47.4734C105.914 48.2171 105.914 48.2171 102.671 49.7189C100.911 50.5209 100.911 50.5209 97.5629 52.3435C95.7128 53.3349 95.7128 53.3349 91.923 55.5073C80.4735 62.6804 74.3562 68.1178 68.1011 74.1383C61.3402 81.0332 57.6809 85.9454 53.5157 91.7322C50.8456 95.624 47.7207 101.061 45.3385 105.317C64.5271 71.2827 126.216 40.4297 146.81 37.8596Z" fill="#F55D55"/>
<path d="M121.011 279.231C75.1194 255.8 181.343 172.664 259.473 157.062C268.266 155.355 274.973 155.659 279.567 156.655C279.092 144.158 277.032 134.597 275.976 131.719C274.206 127.019 261.691 129.42 252.238 131.948C222.85 139.585 184.669 158.601 152.219 180.618C140.68 188.381 125.313 194.777 146.462 177.907C159.585 167.208 146.304 166.757 122.302 186.01C81.8515 218.743 83.4629 246.14 86.6582 257.707C87.0544 259.794 87.8994 261.774 89.1933 263.648C89.1933 263.648 89.1933 263.648 89.3253 263.806C91.2529 266.762 94.3687 269.53 98.8576 271.688C108.231 276.48 118.688 280.635 130.623 283.018C127.19 282.126 124.101 280.678 121.011 279.231Z" fill="#F55D55"/>
<path d="M162.031 166.754C164.661 165.896 171.776 162.36 175.183 158.896C178.739 155.342 177.453 153.355 172.655 154.487C166.706 155.898 160.683 159.904 158.098 162.878C155.588 165.806 156.679 167.297 159.101 167.279C159.923 167.298 160.925 167.108 162.031 166.754Z" fill="#F55D55"/>
<path d="M38.3144 198.981C35.0026 136.72 174.776 53.9631 227.194 59.9152C218.177 53.2862 208.826 48.3769 204.326 47.2291C199.826 46.0813 194.179 45.895 187.645 46.6606C184.112 46.9219 181.962 45.425 186.399 44.7365C191.351 43.7664 196.465 43.7096 203.83 44.2267C205.411 44.4312 206.414 43.081 205.574 41.536C204.057 39.3591 198.075 37.0838 182.053 40.431C86.9688 60.4756 50.9553 119.848 37.8019 145.679C36.5006 145.99 39.6102 141.016 40.2796 137.577C41.5458 132.408 34.9406 131.075 31.764 153.256C29.3385 170.549 34.3942 191.77 38.4491 202.916C38.2777 201.74 38.3593 200.292 38.3144 198.981Z" fill="#F55D55"/>
</g>
<g style="mix-blend-mode:soft-light">
<path d="M160.426 285.753C162.52 285.586 165.388 285.577 167.609 285.364C185.543 283.312 199.044 278.491 207.094 274.892L209.468 273.899C212.851 272.111 212.851 272.111 214.543 271.217C218.262 269.164 218.262 269.164 220.162 268.05C230.245 261.695 236.38 256.749 245 248.304C247.543 245.366 251.002 241.375 253.545 238.437C238.178 254.946 166.412 283.616 114.39 276.229C107.13 275.195 104.623 274.205 99.3453 271.883C103.976 274.001 110.121 276.738 114.833 278.681C124.192 281.576 129.195 283.126 139.333 284.582C139.206 284.627 139.206 284.627 139.333 284.582L140.709 284.816C141.31 284.891 142.039 284.921 142.64 284.997C149.462 285.607 151.821 285.78 155.718 285.838C157.002 285.815 158.413 285.746 160.426 285.753Z" fill="#F55D55"/>
<path d="M249.052 79.124C248.971 78.8487 248.533 78.3799 248.451 78.1046L243.196 72.4787C233.861 64.1728 233.423 63.704 227.48 59.7809C217.375 52.9028 216.744 52.7909 210.06 49.3881L205.238 47.2285C215.18 53.5562 167.214 78.0242 127.444 86.8693C112.304 90.1786 84.7965 95.0731 73.5989 85.5241C61.0398 70.3884 104.728 46.5949 110.565 48.1525C110.921 48.3461 111.277 48.5397 111.359 48.815C111.33 49.7224 111.412 49.9976 109.27 51.8337C105.81 55.2608 110.69 55.6056 112.774 55.5844C126.099 55.2121 155.787 41.579 151.105 37.8798C150.393 37.4926 149.132 37.2688 147.404 37.4836C145.046 37.5865 142.14 37.8527 140.138 38.1492C134.406 38.9569 134.406 38.9569 131.307 39.58C126.562 40.6932 126.562 40.6932 124.367 41.3466C120.171 42.2964 120.171 42.2964 118.333 43.1434C114.767 44.2052 114.767 44.2052 112.928 45.0521C109.637 46.0322 109.637 46.0322 108.072 46.7975C104.67 48.4097 104.67 48.4097 103.106 49.175C99.7035 50.7873 99.7035 50.7873 97.8652 51.6342C94.2702 53.6034 94.2702 53.6034 92.2393 54.8073C84.1975 59.8981 77.609 64.8558 68.5468 73.5461C63.5752 78.9212 59.7299 83.0622 54.0411 91.0476C51.3748 95.1372 48.0201 100.93 45.7917 105.488C43.1782 110.76 36.7382 125.261 52.8734 133.34C62.1609 137.466 73.7008 139.123 86.0108 139.353C153.129 139.143 251.203 88.3707 249.052 79.124Z" fill="#F55D55"/>
<path d="M183.378 116.97C188.824 114.826 203.931 109.931 192.614 117.805C181.208 125.451 183.672 131.055 198.791 123.525C213.774 116.312 258.471 90.0375 248.427 78.476L243.336 72.8538C235.624 65.8965 234.001 64.4317 230.3 61.681C210.831 78.8128 106.147 127.125 57.1965 105.897C53.3104 104.008 50.7857 101.583 49.4851 98.9393C48.0693 101.338 46.6535 103.736 45.602 105.728C43.2658 111.118 36.6279 125.565 52.8946 133.625C62.1593 137.867 73.5205 139.443 86.1122 139.483C116.233 139.459 152.608 129.346 183.378 116.97Z" fill="#F55D55"/>
<path d="M110.195 48.9209C110.413 48.9891 110.706 49.2006 110.961 49.3405C110.954 50.3539 110.926 50.644 108.855 52.3847C105.508 55.9957 110.115 56.3052 112.269 56.2638C125.629 56.1518 155.384 42.4792 150.681 38.7334C150.056 38.2388 148.757 38.0104 146.749 38.1576C144.6 38.3798 141.733 38.6159 139.622 38.9098C133.789 39.7095 133.789 39.7095 130.79 40.3824C126.148 41.3763 126.148 41.3763 123.759 42.0013C119.802 43.0906 119.802 43.0906 117.881 43.7428C114.25 44.9345 114.25 44.9345 112.508 45.5832C109.204 46.8771 109.204 46.8771 107.571 47.5599C104.233 48.9631 104.233 48.9631 102.567 49.7551C99.273 51.4108 99.2022 51.4483 97.5032 52.3496C93.8601 54.3738 93.7893 54.4114 91.9159 55.4969C87.0794 58.5212 82.6728 61.5011 78.074 65.3171C78.4381 65.491 78.873 65.6274 79.275 65.873C89.6303 55.9751 106.612 47.9765 110.195 48.9209Z" fill="#F55D55"/>
<path d="M277.428 184.874C278.105 180.929 279.019 175.973 279.156 172.231C280.076 159.891 280.144 159.25 279.609 152.069C278.237 139.359 278.035 138.819 276.321 131.773L276.389 131.132C275.633 150.484 115.091 219.6 51.1646 190.976C45.9751 188.616 34.1463 184.132 32.4359 172.163C33.1737 177.423 34.0454 183.862 34.952 188.751C38.3139 201.023 38.7176 202.102 42.0153 210.092C44.5734 215.285 48.1078 222.264 50.9357 227.355C54.0002 231.434 57.9071 236.12 71.4553 240.267C81.5665 242.627 92.7236 243.673 104.117 243.706C179.222 243.841 274.52 197.652 277.428 184.874Z" fill="#F55D55"/>
<path d="M197.448 226.537C215.368 221.34 195.391 233.883 180.962 237.747C173.78 239.785 167.449 245.248 181.305 242.488C204.283 238.002 277.181 201.356 277.504 184.86C278.119 180.971 278.888 176.11 279.294 172.288C279.753 164.984 279.873 161.714 279.916 158.93C255.129 181.767 133.724 235.348 57.2431 216.092C49.6411 213.874 44.8921 211.218 41.531 208.585C41.6634 209.005 41.7958 209.425 42.1375 209.779C44.5524 215.251 48.3339 222.138 51.1012 227.268C54.1654 231.149 58.0452 236.158 71.5195 240.215C81.6883 242.545 92.6386 243.705 104.371 243.695C134.565 243.857 168.072 236.276 197.448 226.537Z" fill="#F55D55"/>
<path d="M208.845 273.067C210.575 272.307 210.575 272.307 213.981 270.546C215.831 269.531 215.831 269.531 219.519 267.328C230.73 260.356 236.687 255.248 244.282 247.702C247.006 244.798 250.389 240.862 252.966 237.864C253.543 237.155 254.389 235.829 253.868 234.955C250.049 227.939 195.364 252.134 188.719 268.137C186.472 273.672 193.356 274.847 202.661 270.472C208.949 266.989 216.093 265.091 217.565 266.034C217.859 266.223 219.946 267.893 206.58 274.147L208.845 273.067Z" fill="#F55D55"/>
<path d="M237.86 253.528C238.179 254.074 237.988 254.691 237.704 255.313C240.085 253.233 242.41 251.016 244.859 248.559C247.561 245.715 250.982 241.761 253.441 238.789C253.999 238.06 254.89 236.754 254.409 235.889C250.451 228.783 195.729 252.525 189.261 268.46C188.853 269.322 188.768 270.121 188.857 270.725C207.388 258.696 235.127 248.561 237.86 253.528Z" fill="#F55D55"/>
<path d="M156.209 284.453C126.792 282.137 133.267 263.063 147.733 247.245C186.533 205.216 277.094 169.789 277.361 184.744C282.835 160.319 277.955 136.216 276.196 131.369C274.394 126.733 261.973 129.159 252.288 131.588C178.215 150.946 45.753 243.774 99.4528 271.146C113.961 278.454 130.996 284.628 152.252 284.532C153.557 284.576 154.988 284.536 156.209 284.453Z" fill="#F55D55"/>
<path d="M47.7256 221.057C35.1871 168.745 219.153 58.9269 247.589 77.9151C237.095 64.6803 212.722 49.4672 204.534 47.392C161.375 36.6778 28.8514 113.443 31.8621 170.807C32.9422 195.318 43.3271 217.204 50.606 227.569C49.4541 225.708 48.254 223.305 47.7256 221.057Z" fill="#F55D55"/>
<path d="M45.3385 105.317C45.1752 105.565 45.0855 105.754 44.9799 106.075C45.0855 105.754 45.1752 105.565 45.3385 105.317ZM146.81 37.8596C144.663 38.0205 141.827 38.3709 139.68 38.5318C136.492 39.0427 136.214 39.1447 130.904 40.1516C128.446 40.6769 128.241 40.7207 123.85 41.8294C121.859 42.3399 121.786 42.3982 117.919 43.5651C116.117 44.1631 116.044 44.2214 112.629 45.5047C110.958 46.1172 110.958 46.1172 107.6 47.4734C105.914 48.2171 105.914 48.2171 102.671 49.7189C100.911 50.5209 100.911 50.5209 97.5629 52.3435C95.7128 53.3349 95.7128 53.3349 91.923 55.5073C80.4735 62.6804 74.3562 68.1178 68.1011 74.1383C61.3402 81.0332 57.6809 85.9454 53.5157 91.7322C50.8456 95.624 47.7207 101.061 45.3385 105.317C64.5271 71.2827 126.216 40.4297 146.81 37.8596Z" fill="#F55D55"/>
<path d="M121.011 279.231C75.1194 255.8 181.343 172.664 259.473 157.062C268.266 155.355 274.973 155.659 279.567 156.655C279.092 144.158 277.032 134.597 275.976 131.719C274.206 127.019 261.691 129.42 252.238 131.948C222.85 139.585 184.669 158.601 152.219 180.618C140.68 188.381 125.313 194.777 146.462 177.907C159.585 167.208 146.304 166.757 122.302 186.01C81.8515 218.743 83.4629 246.14 86.6582 257.707C87.0544 259.794 87.8994 261.774 89.1933 263.648C89.1933 263.648 89.1933 263.648 89.3253 263.806C91.2529 266.762 94.3687 269.53 98.8576 271.688C108.231 276.48 118.688 280.635 130.623 283.018C127.19 282.126 124.101 280.678 121.011 279.231Z" fill="#F55D55"/>
<path d="M162.031 166.754C164.661 165.896 171.776 162.36 175.183 158.896C178.739 155.342 177.453 153.355 172.655 154.487C166.706 155.898 160.683 159.904 158.098 162.878C155.588 165.806 156.679 167.297 159.101 167.279C159.923 167.298 160.925 167.108 162.031 166.754Z" fill="#F55D55"/>
<path d="M38.3144 198.981C35.0026 136.72 174.776 53.9631 227.194 59.9152C218.177 53.2862 208.826 48.3769 204.326 47.2291C199.826 46.0813 194.179 45.895 187.645 46.6606C184.112 46.9219 181.962 45.425 186.399 44.7365C191.351 43.7664 196.465 43.7096 203.83 44.2267C205.411 44.4312 206.414 43.081 205.574 41.536C204.057 39.3591 198.075 37.0838 182.053 40.431C86.9688 60.4756 50.9553 119.848 37.8019 145.679C36.5006 145.99 39.6102 141.016 40.2796 137.577C41.5458 132.408 34.9406 131.075 31.764 153.256C29.3385 170.549 34.3942 191.77 38.4491 202.916C38.2777 201.74 38.3593 200.292 38.3144 198.981Z" fill="#F55D55"/>
</g>
<defs>
<linearGradient id="paint0_linear_1_10343" x1="249.51" y1="239.202" x2="122.11" y2="284.598" gradientUnits="userSpaceOnUse">
<stop stop-color="#076BFF"/>
<stop offset="1" stop-color="#DD65F5"/>
</linearGradient>
<linearGradient id="paint1_linear_1_10343" x1="288.408" y1="39.7442" x2="14.0538" y2="121.267" gradientUnits="userSpaceOnUse">
<stop stop-color="#4037FF"/>
<stop offset="1" stop-color="#FF87FF"/>
</linearGradient>
<linearGradient id="paint2_linear_1_10343" x1="69.8437" y1="132.752" x2="296.81" y2="43.5792" gradientUnits="userSpaceOnUse">
<stop stop-color="#FF89FF"/>
<stop offset="1" stop-color="#6091FF"/>
</linearGradient>
<linearGradient id="paint3_linear_1_10343" x1="177.171" y1="19.2365" x2="106.349" y2="56.7283" gradientUnits="userSpaceOnUse">
<stop stop-color="#076BFF"/>
<stop offset="1" stop-color="#DD65F5"/>
</linearGradient>
<linearGradient id="paint4_linear_1_10343" x1="298.623" y1="130.544" x2="28.806" y2="231.511" gradientUnits="userSpaceOnUse">
<stop stop-color="#4037FF"/>
<stop offset="1" stop-color="#FF87FF"/>
</linearGradient>
<linearGradient id="paint5_linear_1_10343" x1="85.1981" y1="233.97" x2="294.509" y2="167.998" gradientUnits="userSpaceOnUse">
<stop stop-color="#FF89FF"/>
<stop offset="1" stop-color="#6091FF"/>
</linearGradient>
<linearGradient id="paint6_linear_1_10343" x1="256.864" y1="233.268" x2="189.778" y2="273.27" gradientUnits="userSpaceOnUse">
<stop stop-color="#F5CAE6"/>
<stop offset="1" stop-color="#F5DBF3"/>
</linearGradient>
<linearGradient id="paint7_linear_1_10343" x1="260.161" y1="209.347" x2="216.734" y2="258.176" gradientUnits="userSpaceOnUse">
<stop stop-color="#6DBDFB"/>
<stop offset="1" stop-color="#F5CAE6"/>
</linearGradient>
<linearGradient id="paint8_linear_1_10343" x1="254.67" y1="165.655" x2="128.166" y2="249.612" gradientUnits="userSpaceOnUse">
<stop stop-color="#65CDFD"/>
<stop offset="1" stop-color="#FFD9F5"/>
</linearGradient>
<linearGradient id="paint9_linear_1_10343" x1="243.137" y1="51.6746" x2="35.2065" y2="180.391" gradientUnits="userSpaceOnUse">
<stop stop-color="#65CDFD"/>
<stop offset="1" stop-color="#FFD9F5"/>
</linearGradient>
<linearGradient id="paint10_linear_1_10343" x1="111.148" y1="52.5668" x2="37.4676" y2="110.808" gradientUnits="userSpaceOnUse">
<stop stop-color="#6DBDFB"/>
<stop offset="1" stop-color="#F5CAE6"/>
</linearGradient>
<linearGradient id="paint11_linear_1_10343" x1="266.704" y1="117.379" x2="108.15" y2="249.628" gradientUnits="userSpaceOnUse">
<stop stop-color="#13D2FD"/>
<stop offset="1" stop-color="#F5CAE6"/>
</linearGradient>
<linearGradient id="paint12_linear_1_10343" x1="215.74" y1="131.391" x2="140.974" y2="175.972" gradientUnits="userSpaceOnUse">
<stop stop-color="#13D2FD"/>
<stop offset="1" stop-color="#F5CAE6"/>
</linearGradient>
<linearGradient id="paint13_linear_1_10343" x1="188.743" y1="36.7641" x2="62.0741" y2="172.626" gradientUnits="userSpaceOnUse">
<stop stop-color="#65CDFD"/>
<stop offset="1" stop-color="#F5CAE6"/>
</linearGradient>
</defs>
</svg>
