<svg width="200" height="42" viewBox="0 0 200 42" fill="none" xmlns="http://www.w3.org/2000/svg">
<path d="M126.489 0C127.503 0 128.377 0.361111 129.109 1.08333C129.841 1.77778 130.207 2.61111 130.207 3.58333C130.207 4.52778 129.841 5.36111 129.109 6.08333C128.377 6.80556 127.503 7.16667 126.489 7.16667C125.475 7.16667 124.602 6.80556 123.87 6.08333C123.166 5.36111 122.813 4.52778 122.813 3.58333C122.813 2.61111 123.166 1.77778 123.87 1.08333C124.602 0.361111 125.475 0 126.489 0Z" fill="#252525"/>
<path d="M129.616 29.3932V32H124.25V15.4583H120.828V10.9583H129.616V14.1696C129.038 14.7677 128.524 15.4334 128.073 16.1667C127.031 17.8333 126.51 19.7083 126.51 21.7917C126.51 23.875 127.031 25.75 128.073 27.4167C128.524 28.138 129.038 28.7968 129.616 29.3932Z" fill="#252525"/>
<path d="M146.49 29.1034V32H151.856V18.6667C152.448 17.8333 153.152 17.1111 153.969 16.5C154.814 15.8889 155.715 15.5833 156.673 15.5833C157.884 15.5833 158.827 15.9306 159.503 16.625C160.208 17.3194 160.56 18.375 160.56 19.7917L160.602 32H165.968V19.0833C165.968 16.1944 165.236 14.0278 163.771 12.5833C162.306 11.1389 160.489 10.4167 158.32 10.4167C156.884 10.4167 155.602 10.7917 154.476 11.5417C153.377 12.2917 152.504 13.0972 151.856 13.9583V10.9583H146.49V14.4606C146.959 14.9815 147.383 15.5502 147.762 16.1667C148.832 17.8333 149.367 19.7083 149.367 21.7917C149.367 23.875 148.832 25.75 147.762 27.4167C147.383 28.023 146.959 28.5853 146.49 29.1034Z" fill="#252525"/>
<path d="M113.42 10.9583V4.83333H110.674C109.998 6.97222 109.082 8.69445 107.928 10C106.801 11.3056 105.562 12.1944 104.209 12.6667V15.375H108.054V25.8333C108.054 27.9444 108.646 29.6111 109.829 30.8333C111.04 32.0278 112.603 32.625 114.519 32.625C115.73 32.625 116.73 32.4444 117.519 32.0833C118.335 31.7222 119.011 31.2778 119.547 30.75V26.5417C119.068 26.8472 118.547 27.0833 117.983 27.25C117.448 27.4167 116.8 27.5 116.04 27.5C115.167 27.5 114.505 27.2361 114.054 26.7083C113.631 26.1528 113.42 25.4028 113.42 24.4583V15.375H119.335V10.9583H113.42Z" fill="#252525"/>
<path fill-rule="evenodd" clip-rule="evenodd" d="M16.6822 11.75C15.1893 10.8611 13.4007 10.4167 11.3163 10.4167C9.23189 10.4167 7.37284 10.9444 5.73913 12C4.10542 13.0278 2.82381 14.3889 1.89429 16.0833C0.964762 17.7778 0.5 19.6528 0.5 21.7083C0.5 23.8194 1.00701 25.6944 2.02104 27.3333C3.06323 28.9722 4.44343 30.2639 6.16164 31.2083C7.90802 32.1528 9.83749 32.625 11.95 32.625C13.5556 32.625 15.0203 32.3333 16.3442 31.75C17.6962 31.1389 18.7102 30.5417 19.3862 29.9583L19.4285 25.0417C18.668 25.6806 17.6539 26.3056 16.3864 26.9167C15.1189 27.5278 13.7105 27.8333 12.1613 27.8333C10.5276 27.8333 9.14739 27.4028 8.02069 26.5417C6.894 25.6806 6.18981 24.5417 5.90814 23.125H21.372V20.875C21.372 18.8194 20.9636 17.0139 20.1467 15.4583C19.3581 13.875 18.2032 12.6389 16.6822 11.75ZM7.85169 16.25C8.75304 15.4444 9.86565 15.0417 11.1895 15.0417C12.4007 15.0417 13.5133 15.4167 14.5274 16.1667C15.5414 16.8889 16.1047 18 16.2174 19.5H5.99264C6.33065 18.1389 6.95033 17.0556 7.85169 16.25Z" fill="#252525"/>
<path d="M35.3707 21.25L43.7364 10.9583H37.3987L31.9906 17.7083L26.5824 10.9583H20.2448L28.6105 21.25L19.949 32H26.6669L31.9906 24.6667L37.3142 32H44.0321L35.3707 21.25Z" fill="#252525"/>
<path d="M53.5944 10.4167C55.1718 10.4167 56.4675 10.6667 57.4815 11.1667C58.4955 11.6667 59.2983 12.1528 59.8898 12.625V17.5C59.1574 16.9722 58.3265 16.5278 57.397 16.1667C56.4956 15.8056 55.383 15.625 54.0591 15.625C52.9888 15.625 51.9888 15.8889 51.0593 16.4167C50.158 16.9444 49.4397 17.6528 48.9045 18.5417C48.3693 19.4306 48.1017 20.4444 48.1017 21.5833C48.1017 23.3056 48.6651 24.7222 49.7918 25.8333C50.9185 26.9444 52.3409 27.5 54.0591 27.5C55.383 27.5 56.4956 27.3333 57.397 27C58.3265 26.6389 59.1574 26.1944 59.8898 25.6667V30.5C59.2983 31 58.4955 31.4861 57.4815 31.9583C56.4675 32.4028 55.1718 32.625 53.5944 32.625C51.4255 32.625 49.496 32.125 47.806 31.125C46.1441 30.0972 44.8202 28.75 43.8344 27.0833C42.8767 25.3889 42.3979 23.5556 42.3979 21.5833C42.3979 20.1111 42.6654 18.7083 43.2006 17.375C43.764 16.0417 44.5527 14.8611 45.5667 13.8333C46.5807 12.7778 47.7637 11.9444 49.1158 11.3333C50.496 10.7222 51.9888 10.4167 53.5944 10.4167Z" fill="#252525"/>
<path fill-rule="evenodd" clip-rule="evenodd" d="M76.339 11.75C74.8461 10.8611 73.0575 10.4167 70.9731 10.4167C68.8887 10.4167 67.0297 10.9444 65.396 12C63.7622 13.0278 62.4806 14.3889 61.5511 16.0833C60.6216 17.7778 60.1568 19.6528 60.1568 21.7083C60.1568 23.8194 60.6638 25.6944 61.6779 27.3333C62.7201 28.9722 64.1003 30.2639 65.8185 31.2083C67.5648 32.1528 69.4943 32.625 71.6069 32.625C73.2124 32.625 74.6771 32.3333 76.001 31.75C77.353 31.1389 78.367 30.5417 79.043 29.9583L79.0853 25.0417C78.3248 25.6806 77.3108 26.3056 76.0432 26.9167C74.7757 27.5278 73.3673 27.8333 71.8181 27.8333C70.1844 27.8333 68.8042 27.4028 67.6775 26.5417C66.5508 25.6806 65.8466 24.5417 65.565 23.125H81.0288V20.875C81.0288 18.8194 80.6204 17.0139 79.8036 15.4583C79.0149 13.875 77.86 12.6389 76.339 11.75ZM67.5085 16.25C68.4099 15.4444 69.5225 15.0417 70.8463 15.0417C72.0575 15.0417 73.1702 15.4167 74.1842 16.1667C75.1982 16.8889 75.7616 18 75.8742 19.5H65.6495C65.9875 18.1389 66.6071 17.0556 67.5085 16.25Z" fill="#252525"/>
<path fill-rule="evenodd" clip-rule="evenodd" d="M95.112 10.4167C96.802 10.4167 98.3653 10.8472 99.8018 11.7083C101.267 12.5417 102.436 13.7778 103.309 15.4167C104.21 17.0278 104.661 19 104.661 21.3333C104.661 23.6667 104.21 25.6806 103.309 27.375C102.436 29.0694 101.238 30.375 99.7173 31.2917C98.2245 32.1806 96.5626 32.625 94.7317 32.625C93.5487 32.625 92.3657 32.3472 91.1826 31.7917C90.0278 31.2083 89.056 30.4861 88.2673 29.625V42H82.9014V10.9583H88.2673V14.5C88.887 13.3611 89.7883 12.4028 90.9714 11.625C92.1544 10.8194 93.5346 10.4167 95.112 10.4167ZM93.7599 15.7083C92.8023 15.7083 91.9009 15.9583 91.0559 16.4583C90.2109 16.9306 89.5208 17.6111 88.9856 18.5C88.4786 19.3889 88.2391 20.4583 88.2673 21.7083V24.75C89.0278 25.5278 89.8447 26.1806 90.7179 26.7083C91.6192 27.2083 92.591 27.4583 93.6332 27.4583C94.7317 27.4583 95.6894 27.1667 96.5063 26.5833C97.3231 26 97.9569 25.25 98.4076 24.3333C98.8582 23.3889 99.0836 22.3889 99.0836 21.3333C99.0836 19.75 98.5907 18.4167 97.6048 17.3333C96.6471 16.25 95.3655 15.7083 93.7599 15.7083Z" fill="#252525"/>
<path d="M174.474 2V32H169.108V2H174.474Z" fill="#252525"/>
<path d="M187.458 24.375L181.374 10.9583H175.121L184.332 30.4583L177.91 42H183.994L199.5 10.9583H193.374L187.458 24.375Z" fill="#252525"/>
<circle cx="138" cy="22.5" r="5.5" fill="#F55D55"/>
</svg>
